<?xml version="1.0" encoding="utf-8"?>
<!-- Generator: Adobe Illustrator 25.0.1, SVG Export Plug-In . SVG Version: 6.00 Build 0)  -->
<svg version="1.1" xmlns="http://www.w3.org/2000/svg" xmlns:xlink="http://www.w3.org/1999/xlink" x="0px" y="0px"
	 viewBox="0 0 222.5 84.5" style="enable-background:new 0 0 222.5 84.5;" xml:space="preserve">
<style type="text/css">
	.st0{display:none;}
	.st1{display:inline;fill:#161E2D;stroke:#000000;stroke-miterlimit:10;}
	.st2{fill:#FFF3E6;}
	.st3{fill:#FFFFFF;}
	.st4{fill:#DCE7F1;}
</style>
<g id="bg" class="st0">
	<rect id="XMLID_5_" x="-366.5" y="52.2" class="st1" width="1280" height="800"/>
</g>
<g id="cloud_1">
</g>
<g id="cloud_4">
</g>
<g id="Layer_1">
</g>
<g id="cloud_2">
	<g id="XMLID_8_">
		<circle id="XMLID_15_" class="st4" cx="123.3" cy="72.2" r="7.5"/>
		<circle id="XMLID_14_" class="st4" cx="188.3" cy="12.2" r="7.5"/>
		<circle id="XMLID_11_" class="st4" cx="37.3" cy="42.2" r="7.5"/>
		<path id="XMLID_10_" class="st4" d="M210.7,65.2h-41.8c-3.5,0-6.4-2.8-6.4-6.4v-6.2c0-1.3,1.1-2.4,2.4-2.4l0,0
			c3.9,0,7.3-2.8,7.8-6.6c0.5-4.5-3-8.4-7.4-8.4H87.9c-3.5,0-6.4-2.8-6.4-6.4v-2.3c0-3.5,2.8-6.4,6.4-6.4h77.1
			c4.1,0,7.7-3.2,7.8-7.3c0.1-4.2-3.3-7.7-7.5-7.7l-112.6,0c-4.1,0-7.7,3.2-7.8,7.3c-0.1,4.2,3.3,7.7,7.5,7.7h6.8
			c3.5,0,6.4,2.8,6.4,6.4v4.8c0,1.9-0.8,3.7-2.3,4.9c-2.5,2-3.8,5.8-2.4,9.2c1.3,2.9,4.3,4.8,7.5,4.8h0c2.9,0,5.2,2.3,5.2,5.2v3.5
			c0,3.5-2.8,6.4-6.4,6.4H12.1c-4.1,0-7.7,3.2-7.8,7.3c-0.1,4.2,3.3,7.7,7.5,7.7l82.5,0c3.4,0,6.5-2.1,7.6-5.3
			c1.2-3.6-0.4-7.3-3.2-9.1c-1.9-1.2-3.1-3.2-3.1-5.4v-3.8c0-3.5,2.8-6.4,6.4-6.4h41.3c3.5,0,6.4,2.8,6.4,6.4V61c0,2-1.1,3.8-2.7,5
			c-3.2,2.3-5.3,7.2-1.5,11.4c1.7,1.9,4.2,2.9,6.7,2.9l59,0c4.2,0,7.6-3.5,7.5-7.7C218.4,68.4,214.8,65.2,210.7,65.2z"/>
	</g>
</g>
<g id="cloud_3">
</g>
</svg>
