<svg xmlns="http://www.w3.org/2000/svg" viewBox="0 0 569 508"><defs><style>.cls-1{fill:#1f3144;}.cls-2{fill:#fff;stroke:#fff;stroke-miterlimit:10;}</style></defs><g id="trees"><path class="cls-1" d="M211,454.46c3-4,12-25-3-14s-17,9-12,1-6,2-13,6-6,0-3-7c.56-1.31,1-1.75.76-2-1.06-1.28-13.16,7.77-14.76,6-.6-.67.68-2.48,0-3s-2.1.91-5,2a16.93,16.93,0,0,1-4,1c-4.4.45-5.79-2-8-1-1.75.81-1.13,2.48-4,5a15.15,15.15,0,0,1-3,2c-2.73,1.42-3.54.86-6,2-3.12,1.44-4.24,3.46-5,3-.59-.36-.45-1.88,0-3,1.06-2.62,4.2-3.32,4-4s-3.61,0-4-1c-.27-.7,1.19-1.71,1-2-.3-.47-4.3,1.63-5,2-10.71,5.57-20.63,5.11-25,5-2.17-.06-2.47-.25-2.58-.49-1.31-2.78,20.92-16.17,47.58-32.51,0,0,13.27-9.07,12.8-9.73-.1-.13-5.49,4.06-12.8,5.73a19,19,0,0,1-7,0c-3.19-.6-3.81-1.61-4-2-.64-1.35.52-2.59,0-3-1.67-1.35-6.93,5.88-15,6-2.29,0-5.6-.5-6-2-.34-1.28,1.5-2.88,3-4,11.84-8.91,35.94-14.34,51-29l1-1a2.31,2.31,0,0,0-1-1c-2.76-1.33-6.66,5.08-10,4-1.74-.57-3-3.07-3-5,0-1.4.73-1.93.38-2.54-.5-.87-2.51-.71-8.38.54-3.32.7-6.69,1.21-10,2-2.48.59-4.56,1.15-6,0-.57-.45-1.2-1.31-1-2,.32-1.09,2.36-.58,4-2,1.38-1.2,1-2.45,2-4,1.53-2.3,4.57-2.74,6-3C156.28,365,175.8,350.4,179.4,345.4c.28-.39,1-1.43.69-2-.55-.86-3.72-.07-6.07,1-3.4,1.57-4.18,3.33-6,3-1.32-.24-1.14-1.22-3-2-2.45-1-4.25,0-5-1s.55-2.42,0-3c-.77-.82-3.63,1.85-8,3-2.92.77-7.7,1.18-9-1a3.34,3.34,0,0,1,0-3c1.22-2.56,5-2.11,10-4a26.13,26.13,0,0,0,7-4c5.37-2.07,7.79-4.82,9-7,1.09-2,.8-2.73,2-4,2.71-2.88,5.81-.71,11-3l.41-.2a22.27,22.27,0,0,0,6.59-4.8,6.27,6.27,0,0,0,2-3c.15-.53.46-1.63,0-2s-1.38.28-3,1a17.31,17.31,0,0,1-6.38,1.28,13.8,13.8,0,0,1-2.62-.28,2.8,2.8,0,0,1-1-2c0-1.13,1.14-1.59,1-2-.27-.81-4.84-.48-11,1-4.88,1.17-6.63,2.07-8,1s-1.38-3.56-1-5a7.26,7.26,0,0,1,6-5,3.65,3.65,0,0,0,1,0,5,5,0,0,0,3-2c1-1.24,1.27-.8,6-4,4-2.74,3.91-3.1,8-6,5.7-4,9.39-5.8,9-7-.21-.66-1.58-.92-2-1-1.73-.33-2.55.52-3,.13-.79-.69,3-8.13,3-8.13-2.07,1.1-4.58,2-6,1s-.63-3.12-2-4c-2-1.32-5.58,2.13-7,1-1-.82-.2-3.41,0-4,2.31-6.86,9.5-7,16-14,7-7.55,6.84-16.2,13-20,.65-.4,3.28-1.92,3-3-.16-.62-1.22-.88-2-1-3.51,3.88-7.37,5.21-9,4-1.29-1-1.25-3.6-1-5a9.13,9.13,0,0,1,2-4,24.42,24.42,0,0,1,5-5c7.25-5.11,17.27-29.23,18-31a186,186,0,0,0,8-24,49.21,49.21,0,0,0,4,20c2.34,5.31,3.64,5.42,9,16,2.58,5.08,3.37,7.21,6,11,1.23,1.76,1.34,1.7,6,8a27.28,27.28,0,0,1,5,10c.49,2,.36,2.67,0,3-1.75,1.6-8.84-4.29-10-3-.48.53.21,2.13,1,4a17.77,17.77,0,0,0,1,2,106.33,106.33,0,0,0,13,17c6.38,6.59,12,12.2,17,17,1.42,1.79,1.47,2.41,1.28,2.66-.67.89-5-2.29-7.28-.66-.9.63-.82,1.5-2,2-.68.28-1.13.17-3,0-3.26-.3-3.82-.31-4,0s-.1.75,1,2a4,4,0,0,1,1,4c-.26.69-1,1.85-2,2-.53.07-.87-.16-1,0-.38.46,2,3,2,3,6,6.43,9.07,9.65,13,12,7.1,4.22,13.31,4.9,16,9,.44.66,1.57,2.38,1,4a3.84,3.84,0,0,1-2,2c-3.35,1.58-5.41-2.33-11-2-2.15.12-3.68.81-6,0-.82-.29-1.59-.71-1.92-.4-.67.63,1.68,3.15.92,4.4s-3.91.65-6,0c-5.08-1.6-7.92-5.28-8.39-4.87-.26.24.55,1.56,1.39,2.87,3.72,5.77,5.57,8.65,8,9.72a15.28,15.28,0,0,0,6,1.28,9.13,9.13,0,0,1,3,0,6.47,6.47,0,0,1,4,3c.56,1.1.25,1.56,1,3a10,10,0,0,0,1.49,2c2.08,2.16,6.22,2.73,9.51,4,2.43.91,1.44,1.08,9,6,5.26,3.42,7.21,4.29,7,5-.31,1-5,1-9,0-4.22-1-7.76-3-8.7-1.9a2,2,0,0,0-.3.9c-.33,1.56.39,2.23,0,3s-1.33.88-2,1c-1.53.28-2-.44-3,0s-.91.81-1.68,1.3c-1.86,1.17-4.64,0-5.32-.3-2.9-1.24-3.49-3.27-5-3a2.79,2.79,0,0,0-2,2c-1,4.56,15.9,13.18,26,17,4.18,1.58,7.82,4.4,12,6,0,0,5.53,2.11,5.27,4-.08.65-.8,1.49-.53,2.51a1,1,0,0,0,.26.43c1,1.07,8,2.07,4,4.07s-16-2-21-4,0,1,0,1a2.7,2.7,0,0,1-1,1c-.83.44-1.64.2-3,0s-3.44-.41-3.52-.14,3.85.9,4.52,3.14a2.76,2.76,0,0,1-1,3c-1.16.65-2.71-.45-7-3s-6.73-4-7-3.68,3,3.78,5,5.68c11.7,11,25.18,14.35,47,26,5.62,3,12.43,6.67,12,7.85-.77,2.13-20-3.07-29-5.85-13-4,7,3,0,2s-3,3-6,2-4,3-14-5,9,14,12,14c0,0,10,9-1,6s-28-6-21,1,1,14-10,11-16-10-17,0-1,16-1,16Z"/><path class="cls-1" d="M117.42,503c3-4,12-25-3-14s-17,9-12,1-6,2-13,6-6,0-3-7c.56-1.3,1-1.75.76-2-1.06-1.28-13.16,7.77-14.76,6-.6-.67.68-2.47,0-3s-2.1.91-5,2a16.43,16.43,0,0,1-4,1c-4.4.45-5.79-2-8-1-1.75.81-1.13,2.49-4,5a14.29,14.29,0,0,1-3,2c-2.73,1.42-3.54.86-6,2-3.12,1.44-4.23,3.46-5,3-.59-.36-.45-1.88,0-3,1.06-2.62,4.2-3.31,4-4s-3.61,0-4-1c-.27-.7,1.19-1.71,1-2-.3-.47-4.3,1.63-5,2-10.71,5.57-20.63,5.11-25,5-2.17-.06-2.47-.25-2.58-.49C4.53,497.72,26.76,484.33,53.42,468c0,0,13.27-9.07,12.8-9.73-.1-.13-5.49,4.06-12.8,5.73a18.8,18.8,0,0,1-7,0c-3.19-.6-3.81-1.61-4-2-.64-1.35.52-2.58,0-3-1.67-1.35-6.93,5.88-15,6-2.29,0-5.6-.5-6-2-.34-1.28,1.5-2.87,3-4,11.84-8.9,35.94-14.34,51-29,.49-.47.86-.86,1-1a2.31,2.31,0,0,0-1-1c-2.76-1.33-6.65,5.08-10,4-1.74-.56-3-3.07-3-5,0-1.4.73-1.93.39-2.54-.51-.87-2.52-.71-8.39.54-3.32.71-6.69,1.21-10,2-2.48.59-4.56,1.15-6,0-.56-.45-1.2-1.31-1-2,.32-1.09,2.36-.58,4-2,1.38-1.2,1-2.45,2-4,1.53-2.3,4.57-2.73,6-3,13.26-2.47,32.78-17.06,36.39-22.06.27-.38,1-1.43.68-2-.55-.86-3.72-.07-6.07,1-3.4,1.57-4.18,3.33-6,3-1.32-.24-1.14-1.22-3-2-2.45-1-4.25.05-5-1s.55-2.42,0-3c-.77-.82-3.63,1.85-8,3-2.92.77-7.7,1.18-9-1a3.37,3.37,0,0,1,0-3c1.22-2.56,5-2.11,10-4a25.86,25.86,0,0,0,7-4c5.37-2.07,7.79-4.82,9-7,1.09-2,.8-2.72,2-4,2.71-2.88,5.81-.71,11-3l.41-.2a22.27,22.27,0,0,0,6.59-4.8,6.27,6.27,0,0,0,2-3c.15-.52.46-1.62,0-2s-1.38.28-3,1A17.09,17.09,0,0,1,88,359.27a13.8,13.8,0,0,1-2.62-.28,2.8,2.8,0,0,1-1-2c0-1.13,1.14-1.59,1-2-.27-.81-4.84-.47-11,1-4.88,1.17-6.63,2.07-8,1s-1.38-3.56-1-5a7.26,7.26,0,0,1,6-5,3.65,3.65,0,0,0,1,0,5,5,0,0,0,3-2c1-1.23,1.27-.79,6-4,4-2.74,3.91-3.09,8-6,5.7-4.05,9.39-5.8,9-7-.21-.66-1.58-.92-2-1-1.73-.33-2.55.52-3,.13-.79-.69,3-8.13,3-8.13-2.07,1.1-4.58,2-6,1s-.62-3.12-2-4c-2-1.32-5.58,2.14-7,1-1-.82-.2-3.41,0-4,2.31-6.86,9.5-7,16-14,7-7.55,6.84-16.2,13-20,.65-.4,3.28-1.92,3-3-.16-.62-1.22-.88-2-1-3.51,3.88-7.37,5.21-9,4-1.29-1-1.25-3.59-1-5a9.13,9.13,0,0,1,2-4,25.37,25.37,0,0,1,5-5c7.25-5.11,17.27-29.22,18-31a186,186,0,0,0,8-24,49.34,49.34,0,0,0,4,20c2.35,5.32,3.64,5.42,9,16,2.58,5.08,3.37,7.21,6,11,1.23,1.77,1.34,1.7,6,8a27.28,27.28,0,0,1,5,10c.5,2,.36,2.67,0,3-1.75,1.6-8.84-4.29-10-3-.48.53.21,2.13,1,4a17.77,17.77,0,0,0,1,2,106.33,106.33,0,0,0,13,17c6.39,6.59,12,12.21,17,17,1.42,1.79,1.47,2.41,1.28,2.66-.67.89-5-2.29-7.28-.66-.9.63-.82,1.51-2,2-.68.28-1.13.17-3,0-3.26-.3-3.82-.31-4,0s-.1.75,1,2a4,4,0,0,1,1,4c-.25.7-1,1.85-2,2-.53.08-.87-.16-1,0-.38.46,2,3,2,3,6,6.44,9.07,9.66,13,12,7.1,4.23,13.31,4.91,16,9,.44.67,1.57,2.38,1,4a3.8,3.8,0,0,1-2,2c-3.35,1.58-5.41-2.32-11-2-2.15.12-3.68.81-6,0-.82-.29-1.59-.71-1.92-.4-.67.63,1.68,3.16.92,4.4s-3.91.65-6,0c-5.08-1.59-7.92-5.27-8.39-4.86-.26.23.55,1.55,1.39,2.86,3.72,5.77,5.57,8.65,8,9.73a15.17,15.17,0,0,0,6,1.27,9.41,9.41,0,0,1,3,0,6.51,6.51,0,0,1,4,3c.56,1.1.25,1.56,1,3a10,10,0,0,0,1.49,2c2.08,2.17,6.22,2.73,9.51,4,2.43.91,1.44,1.08,9,6,5.26,3.42,7.22,4.3,7,5-.31,1-5,.95-9,0-4.22-1-7.76-3.05-8.7-1.9a2,2,0,0,0-.3.9c-.33,1.56.39,2.23,0,3s-1.33.88-2,1c-1.53.28-2-.44-3,0s-.91.81-1.68,1.3c-1.86,1.17-4.64,0-5.32-.3-2.9-1.24-3.49-3.26-5-3a2.79,2.79,0,0,0-2,2c-1,4.56,15.9,13.18,26,17,4.19,1.58,7.82,4.41,12,6,0,0,5.53,2.11,5.28,4-.09.64-.81,1.49-.54,2.5a1,1,0,0,0,.26.44c1,1.06,8,2.06,4,4.06s-16-2-21-4,0,1,0,1a2.63,2.63,0,0,1-1,1c-.83.44-1.64.21-3,0s-3.44-.41-3.52-.14,3.85.9,4.52,3.14a2.76,2.76,0,0,1-1,3c-1.16.66-2.71-.45-7-3s-6.73-4-7-3.68,3,3.78,5,5.68c11.7,10.95,25.18,14.35,47,26,5.62,3,12.43,6.67,12,7.85-.77,2.13-20-3.07-29-5.85-13-4,7,3,0,2s-3,3-6,2-4,3-14-5,9,14,12,14c0,0,10,9-1,6s-28-6-21,1,1,14-10,11-16-10-17,0-1,16-1,16Z"/><path class="cls-1" d="M297.42,400c3-4,12-25-3-14s-17,9-12,1-6,2-13,6-6,0-3-7c.56-1.3,1-1.75.76-2-1.06-1.28-13.16,7.77-14.76,6-.6-.67.68-2.47,0-3s-2.1.91-5,2a16.43,16.43,0,0,1-4,1c-4.4.45-5.79-2-8-1-1.75.81-1.13,2.49-4,5a14.29,14.29,0,0,1-3,2c-2.73,1.42-3.54.86-6,2-3.12,1.44-4.23,3.46-5,3-.59-.36-.45-1.88,0-3,1.06-2.62,4.2-3.31,4-4s-3.61,0-4-1c-.27-.7,1.19-1.71,1-2-.3-.47-4.3,1.63-5,2-10.71,5.57-20.63,5.11-25,5-2.17-.06-2.47-.25-2.58-.49-1.31-2.78,20.92-16.17,47.58-32.51,0,0,13.27-9.07,12.8-9.73-.1-.13-5.49,4.06-12.8,5.73a18.8,18.8,0,0,1-7,0c-3.19-.6-3.81-1.61-4-2-.64-1.35.52-2.58,0-3-1.67-1.35-6.93,5.88-15,6-2.29,0-5.6-.5-6-2-.34-1.28,1.5-2.87,3-4,11.84-8.9,35.94-14.34,51-29,.49-.47.86-.86,1-1a2.31,2.31,0,0,0-1-1c-2.76-1.33-6.65,5.08-10,4-1.74-.56-3-3.07-3-5,0-1.4.73-1.93.39-2.54-.51-.87-2.52-.71-8.39.54-3.32.71-6.69,1.21-10,2-2.48.59-4.56,1.15-6,0-.56-.45-1.2-1.31-1-2,.32-1.09,2.36-.58,4-2,1.38-1.2,1-2.45,2-4,1.53-2.3,4.57-2.73,6-3,13.26-2.47,32.78-17.06,36.39-22.06.27-.38,1-1.43.68-2-.55-.86-3.72-.07-6.07,1-3.4,1.57-4.18,3.33-6,3-1.32-.24-1.14-1.22-3-2-2.45-1-4.25.05-5-1s.55-2.42,0-3c-.77-.82-3.63,1.85-8,3-2.92.77-7.7,1.18-9-1a3.37,3.37,0,0,1,0-3c1.22-2.56,5-2.11,10-4a25.86,25.86,0,0,0,7-4c5.37-2.07,7.79-4.82,9-7,1.09-2,.8-2.72,2-4,2.71-2.88,5.81-.71,11-3l.41-.2a22.27,22.27,0,0,0,6.59-4.8,6.27,6.27,0,0,0,2-3c.15-.52.46-1.62,0-2s-1.38.28-3,1a17.09,17.09,0,0,1-6.38,1.28,13.8,13.8,0,0,1-2.62-.28,2.8,2.8,0,0,1-1-2c.05-1.13,1.14-1.59,1-2-.27-.81-4.84-.47-11,1-4.88,1.17-6.63,2.07-8,1s-1.38-3.56-1-5a7.26,7.26,0,0,1,6-5,3.65,3.65,0,0,0,1,0,5,5,0,0,0,3-2c1-1.23,1.27-.79,6-4,4-2.74,3.91-3.09,8-6,5.7-4.05,9.39-5.8,9-7-.21-.66-1.58-.92-2-1-1.73-.33-2.55.52-3,.13-.79-.69,3-8.13,3-8.13-2.07,1.1-4.58,2-6,1s-.62-3.12-2-4c-2-1.32-5.58,2.14-7,1-1-.82-.2-3.41,0-4,2.31-6.86,9.5-7,16-14,7-7.55,6.84-16.2,13-20,.65-.4,3.28-1.92,3-3-.16-.62-1.22-.88-2-1-3.51,3.88-7.37,5.21-9,4-1.29-1-1.25-3.59-1-5a9.13,9.13,0,0,1,2-4,25.37,25.37,0,0,1,5-5c7.25-5.11,17.27-29.22,18-31a186,186,0,0,0,8-24,49.34,49.34,0,0,0,4,20c2.35,5.32,3.64,5.42,9,16,2.58,5.08,3.37,7.21,6,11,1.23,1.77,1.34,1.7,6,8a27.28,27.28,0,0,1,5,10c.5,2,.36,2.67,0,3-1.75,1.6-8.84-4.29-10-3-.48.53.21,2.13,1,4a17.77,17.77,0,0,0,1,2,106.33,106.33,0,0,0,13,17c6.39,6.59,12,12.21,17,17,1.42,1.79,1.47,2.41,1.28,2.66-.67.89-5-2.29-7.28-.66-.9.63-.82,1.51-2,2-.68.28-1.13.17-3,0-3.26-.3-3.82-.31-4,0s-.1.75,1,2a4,4,0,0,1,1,4c-.25.7-1,1.85-2,2-.53.08-.87-.16-1,0-.38.46,2,3,2,3,6,6.44,9.07,9.66,13,12,7.1,4.23,13.31,4.91,16,9,.44.67,1.57,2.38,1,4a3.8,3.8,0,0,1-2,2c-3.35,1.58-5.41-2.32-11-2-2.15.12-3.68.81-6,0-.82-.29-1.59-.71-1.92-.4-.67.63,1.68,3.16.92,4.4s-3.91.65-6,0c-5.08-1.59-7.92-5.27-8.39-4.86-.26.23.55,1.55,1.39,2.86,3.72,5.77,5.57,8.65,7.95,9.73a15.17,15.17,0,0,0,6.05,1.27,9.41,9.41,0,0,1,3,0,6.51,6.51,0,0,1,4,3c.56,1.1.25,1.56,1,3a10,10,0,0,0,1.49,2c2.08,2.17,6.22,2.73,9.51,4,2.43.91,1.44,1.08,9,6,5.26,3.42,7.22,4.3,7,5-.31,1-5,.95-9,0-4.22-1-7.76-3.05-8.7-1.9a2,2,0,0,0-.3.9c-.33,1.56.39,2.23,0,3s-1.33.88-2,1c-1.53.28-2-.44-3,0s-.91.81-1.68,1.3c-1.86,1.17-4.64,0-5.32-.3-2.9-1.24-3.49-3.26-5-3a2.79,2.79,0,0,0-2,2c-1,4.56,15.9,13.18,26,17,4.19,1.58,7.82,4.41,12,6,0,0,5.53,2.11,5.28,4-.09.64-.81,1.49-.54,2.5a1,1,0,0,0,.26.44c1,1.06,8,2.06,4,4.06s-16-2-21-4,0,1,0,1a2.63,2.63,0,0,1-1,1c-.83.44-1.64.21-3,0s-3.44-.41-3.52-.14,3.85.9,4.52,3.14a2.76,2.76,0,0,1-1,3c-1.16.66-2.71-.45-7-3s-6.73-4-7-3.68,3,3.78,5,5.68c11.7,10.95,25.18,14.35,47,26,5.62,3,12.43,6.67,12,7.85-.77,2.13-20-3.07-29-5.85-13-4,7,3,0,2s-3,3-6,2-4,3-14-5,9,14,12,14c0,0,10,9-1,6s-28-6-21,1,1,14-10,11-16-10-17,0-1,16-1,16Z"/><path class="cls-1" d="M344,347.46c3-4,12-25-3-14s-17,9-12,1-6,2-13,6-6,0-3-7c.56-1.31,1-1.75.76-2-1.06-1.28-13.16,7.77-14.76,6-.6-.67.68-2.48,0-3s-2.1.91-5,2a16.93,16.93,0,0,1-4,1c-4.4.45-5.79-2-8-1-1.75.81-1.13,2.48-4,5a15.15,15.15,0,0,1-3,2c-2.73,1.42-3.54.86-6,2-3.12,1.44-4.24,3.46-5,3-.59-.36-.45-1.88,0-3,1.06-2.62,4.2-3.32,4-4s-3.61,0-4-1c-.27-.7,1.19-1.71,1-2-.3-.47-4.3,1.63-5,2-10.71,5.57-20.63,5.11-25,5-2.17-.06-2.47-.25-2.58-.49-1.31-2.78,20.92-16.17,47.58-32.51,0,0,13.27-9.07,12.8-9.73-.1-.13-5.49,4.06-12.8,5.73a19,19,0,0,1-7,0c-3.19-.6-3.81-1.61-4-2-.64-1.35.52-2.59,0-3-1.67-1.35-6.93,5.88-15,6-2.29,0-5.6-.5-6-2-.34-1.28,1.5-2.88,3-4,11.84-8.91,35.94-14.34,51-29,.49-.48.86-.86,1-1a2.31,2.31,0,0,0-1-1c-2.76-1.33-6.66,5.08-10,4-1.74-.57-3-3.07-3-5,0-1.4.73-1.93.38-2.54-.5-.87-2.51-.71-8.38.54-3.32.7-6.69,1.21-10,2-2.48.59-4.56,1.15-6,0-.57-.45-1.2-1.31-1-2,.32-1.09,2.36-.58,4-2,1.38-1.2,1-2.45,2-4,1.53-2.3,4.57-2.74,6-3C289.28,258,308.8,243.4,312.4,238.4c.28-.39,1-1.43.69-2-.55-.86-3.72-.07-6.07,1-3.4,1.57-4.18,3.33-6,3-1.32-.24-1.14-1.22-3-2-2.45-1-4.25,0-5-1s.55-2.42,0-3c-.77-.82-3.63,1.85-8,3-2.92.77-7.7,1.18-9-1a3.34,3.34,0,0,1,0-3c1.22-2.56,5-2.11,10-4a26.13,26.13,0,0,0,7-4c5.37-2.07,7.79-4.82,9-7,1.09-2,.8-2.73,2-4,2.71-2.88,5.81-.71,11-3l.41-.2a22.27,22.27,0,0,0,6.59-4.8,6.27,6.27,0,0,0,2-3c.15-.53.46-1.63,0-2s-1.38.28-3,1a17.31,17.31,0,0,1-6.38,1.28,13.8,13.8,0,0,1-2.62-.28,2.8,2.8,0,0,1-1-2c.05-1.13,1.14-1.59,1-2-.27-.81-4.84-.48-11,1-4.88,1.17-6.63,2.07-8,1s-1.38-3.56-1-5a7.26,7.26,0,0,1,6-5,3.65,3.65,0,0,0,1,0,5,5,0,0,0,3-2c1-1.24,1.27-.8,6-4,4-2.74,3.91-3.1,8-6,5.7-4.05,9.39-5.8,9-7-.21-.66-1.58-.92-2-1-1.73-.33-2.55.52-3,.13-.79-.69,3-8.13,3-8.13-2.07,1.1-4.58,2-6,1s-.63-3.12-2-4c-2-1.32-5.58,2.13-7,1-1-.82-.2-3.41,0-4,2.31-6.86,9.5-7,16-14,7-7.55,6.84-16.2,13-20,.65-.4,3.28-1.92,3-3-.16-.62-1.22-.88-2-1-3.51,3.88-7.37,5.21-9,4-1.29-1-1.25-3.6-1-5a9.13,9.13,0,0,1,2-4,24.42,24.42,0,0,1,5-5c7.25-5.11,17.27-29.23,18-31a186,186,0,0,0,8-24,49.21,49.21,0,0,0,4,20c2.34,5.31,3.64,5.42,9,16,2.58,5.08,3.37,7.21,6,11,1.23,1.76,1.34,1.7,6,8a27.28,27.28,0,0,1,5,10c.49,2,.36,2.67,0,3-1.75,1.6-8.84-4.29-10-3-.48.53.21,2.13,1,4a17.77,17.77,0,0,0,1,2,106.33,106.33,0,0,0,13,17c6.38,6.59,12,12.2,17,17,1.42,1.79,1.47,2.41,1.28,2.66-.67.89-5-2.29-7.28-.66-.9.63-.82,1.5-2,2-.68.28-1.13.17-3,0-3.26-.3-3.82-.31-4,0s-.1.75,1,2a4,4,0,0,1,1,4c-.26.69-1,1.85-2,2-.53.07-.87-.16-1,0-.38.46,2,3,2,3,6,6.43,9.07,9.65,13,12,7.1,4.22,13.31,4.9,16,9,.44.66,1.57,2.38,1,4a3.84,3.84,0,0,1-2,2c-3.35,1.58-5.41-2.33-11-2-2.15.12-3.68.81-6,0-.82-.29-1.59-.71-1.92-.4-.67.63,1.68,3.15.92,4.4s-3.91.65-6,0c-5.08-1.6-7.92-5.28-8.39-4.87-.26.24.55,1.56,1.39,2.87,3.72,5.77,5.57,8.65,8,9.72a15.28,15.28,0,0,0,6,1.28,9.13,9.13,0,0,1,3,0,6.47,6.47,0,0,1,4,3c.56,1.1.25,1.56,1,3a10,10,0,0,0,1.49,2c2.08,2.16,6.22,2.73,9.51,4,2.43.91,1.44,1.08,9,6,5.26,3.42,7.21,4.29,7,5-.31,1-5,.95-9,0-4.22-1-7.76-3.05-8.7-1.9a2,2,0,0,0-.3.9c-.33,1.56.39,2.23,0,3s-1.33.88-2,1c-1.53.28-2-.44-3,0s-.91.81-1.68,1.3c-1.86,1.17-4.64,0-5.32-.3-2.9-1.24-3.49-3.27-5-3a2.79,2.79,0,0,0-2,2c-1,4.56,15.9,13.18,26,17,4.18,1.58,7.82,4.4,12,6,0,0,5.53,2.11,5.27,4-.08.65-.8,1.49-.53,2.51a1,1,0,0,0,.26.43c1,1.07,8,2.07,4,4.07s-16-2-21-4,0,1,0,1a2.7,2.7,0,0,1-1,1c-.83.44-1.64.2-3,0s-3.44-.41-3.52-.14,3.85.9,4.52,3.14a2.76,2.76,0,0,1-1,3c-1.16.65-2.71-.45-7-3s-6.73-4-7-3.68,3,3.78,5,5.68c11.7,11,25.18,14.35,47,26,5.62,3,12.43,6.67,12,7.85-.77,2.13-20-3.07-29-5.85-13-4,7,3,0,2s-3,3-6,2-4,3-14-5,9,14,12,14c0,0,10,9-1,6s-28-6-21,1,1,14-10,11-16-10-17,0-1,16-1,16Z"/><path class="cls-1" d="M250.42,396c3-4,12-25-3-14s-17,9-12,1-6,2-13,6-6,0-3-7c.56-1.3,1-1.75.76-2-1.06-1.28-13.16,7.77-14.76,6-.6-.67.68-2.47,0-3s-2.1.91-5,2a16.43,16.43,0,0,1-4,1c-4.4.45-5.79-2-8-1-1.75.81-1.13,2.49-4,5a14.29,14.29,0,0,1-3,2c-2.73,1.42-3.54.86-6,2-3.12,1.44-4.23,3.46-5,3-.59-.36-.45-1.88,0-3,1.06-2.62,4.2-3.31,4-4s-3.61,0-4-1c-.27-.7,1.19-1.71,1-2-.3-.47-4.3,1.63-5,2-10.71,5.57-20.63,5.11-25,5-2.17-.06-2.47-.25-2.58-.49-1.31-2.78,20.92-16.17,47.58-32.51,0,0,13.27-9.07,12.8-9.73-.1-.13-5.49,4.06-12.8,5.73a18.8,18.8,0,0,1-7,0c-3.19-.6-3.81-1.61-4-2-.64-1.35.52-2.58,0-3-1.67-1.35-6.93,5.88-15,6-2.29,0-5.6-.5-6-2-.34-1.28,1.5-2.87,3-4,11.84-8.9,35.94-14.34,51-29,.49-.47.86-.86,1-1a2.31,2.31,0,0,0-1-1c-2.76-1.33-6.65,5.08-10,4-1.74-.56-3-3.07-3-5,0-1.4.73-1.93.39-2.54-.51-.87-2.52-.71-8.39.54-3.32.71-6.69,1.21-10,2-2.48.59-4.56,1.15-6,0-.56-.45-1.2-1.31-1-2,.32-1.09,2.36-.58,4-2,1.38-1.2,1-2.45,2-4,1.53-2.3,4.57-2.73,6-3,13.26-2.47,32.78-17.06,36.39-22.06.27-.38,1-1.43.68-2-.55-.86-3.72-.07-6.07,1-3.4,1.57-4.18,3.33-6,3-1.32-.24-1.14-1.22-3-2-2.45-1-4.25.05-5-1s.55-2.42,0-3c-.77-.82-3.63,1.85-8,3-2.92.77-7.7,1.18-9-1a3.37,3.37,0,0,1,0-3c1.22-2.56,5-2.11,10-4a25.86,25.86,0,0,0,7-4c5.37-2.07,7.79-4.82,9-7,1.09-2,.8-2.72,2-4,2.71-2.88,5.81-.71,11-3l.41-.2a22.27,22.27,0,0,0,6.59-4.8,6.27,6.27,0,0,0,2-3c.15-.52.46-1.62,0-2s-1.38.28-3,1a17.09,17.09,0,0,1-6.38,1.28,13.8,13.8,0,0,1-2.62-.28,2.8,2.8,0,0,1-1-2c.05-1.13,1.14-1.59,1-2-.27-.81-4.84-.47-11,1-4.88,1.17-6.63,2.07-8,1s-1.38-3.56-1-5a7.26,7.26,0,0,1,6-5,3.65,3.65,0,0,0,1,0,5,5,0,0,0,3-2c1-1.23,1.27-.79,6-4,4-2.74,3.91-3.09,8-6,5.7-4.05,9.39-5.8,9-7-.21-.66-1.58-.92-2-1-1.73-.33-2.55.52-3,.13-.79-.69,3-8.13,3-8.13-2.07,1.1-4.58,2-6,1s-.62-3.12-2-4c-2-1.32-5.58,2.14-7,1-1-.82-.2-3.41,0-4,2.31-6.86,9.5-7,16-14,7-7.55,6.84-16.2,13-20,.65-.4,3.28-1.92,3-3-.16-.62-1.22-.88-2-1-3.51,3.88-7.37,5.21-9,4-1.29-1-1.25-3.59-1-5a9.13,9.13,0,0,1,2-4,25.37,25.37,0,0,1,5-5c7.25-5.11,17.27-29.22,18-31a186,186,0,0,0,8-24,49.34,49.34,0,0,0,4,20c2.35,5.32,3.64,5.42,9,16,2.58,5.08,3.37,7.21,6,11,1.23,1.77,1.34,1.7,6,8a27.28,27.28,0,0,1,5,10c.5,2,.36,2.67,0,3-1.75,1.6-8.84-4.29-10-3-.48.53.21,2.13,1,4a17.77,17.77,0,0,0,1,2,106.33,106.33,0,0,0,13,17c6.39,6.59,12,12.21,17,17,1.42,1.79,1.47,2.41,1.28,2.66-.67.89-5-2.29-7.28-.66-.9.63-.82,1.51-2,2-.68.28-1.13.17-3,0-3.26-.3-3.82-.31-4,0s-.1.75,1,2a4,4,0,0,1,1,4c-.25.7-1,1.85-2,2-.53.08-.87-.16-1,0-.38.46,2,3,2,3,6,6.44,9.07,9.66,13,12,7.1,4.23,13.31,4.91,16,9,.44.67,1.57,2.38,1,4a3.8,3.8,0,0,1-2,2c-3.35,1.58-5.41-2.32-11-2-2.15.12-3.68.81-6,0-.82-.29-1.59-.71-1.92-.4-.67.63,1.68,3.16.92,4.4s-3.91.65-6,0c-5.08-1.59-7.92-5.27-8.39-4.86-.26.23.55,1.55,1.39,2.86,3.72,5.77,5.57,8.65,7.95,9.73a15.17,15.17,0,0,0,6.05,1.27,9.41,9.41,0,0,1,3,0,6.51,6.51,0,0,1,4,3c.56,1.1.25,1.56,1,3a10,10,0,0,0,1.49,2c2.08,2.17,6.22,2.73,9.51,4,2.43.91,1.44,1.08,9,6,5.26,3.42,7.22,4.3,7,5-.31,1-5,.95-9,0-4.22-1-7.76-3.05-8.7-1.9a2,2,0,0,0-.3.9c-.33,1.56.39,2.23,0,3s-1.33.88-2,1c-1.53.28-2-.44-3,0s-.91.81-1.68,1.3c-1.86,1.17-4.64,0-5.32-.3-2.9-1.24-3.49-3.26-5-3a2.79,2.79,0,0,0-2,2c-1,4.56,15.9,13.18,26,17,4.19,1.58,7.82,4.41,12,6,0,0,5.53,2.11,5.28,4-.09.64-.81,1.49-.54,2.5a1,1,0,0,0,.26.44c1,1.06,8,2.06,4,4.06s-16-2-21-4,0,1,0,1a2.63,2.63,0,0,1-1,1c-.83.44-1.64.21-3,0s-3.44-.41-3.52-.14,3.85.9,4.52,3.14a2.76,2.76,0,0,1-1,3c-1.16.66-2.71-.45-7-3s-6.73-4-7-3.68,3,3.78,5,5.68c11.7,10.95,25.18,14.35,47,26,5.62,3,12.43,6.67,12,7.85-.77,2.13-20-3.07-29-5.85-13-4,7,3,0,2s-3,3-6,2-4,3-14-5,9,14,12,14c0,0,10,9-1,6s-28-6-21,1,1,14-10,11-16-10-17,0-1,16-1,16Z"/><path class="cls-1" d="M430.42,293c3-4,12-25-3-14s-17,9-12,1-6,2-13,6-6,0-3-7c.56-1.3,1-1.75.76-2-1.06-1.28-13.16,7.77-14.76,6-.6-.67.68-2.47,0-3s-2.1.91-5,2a16.43,16.43,0,0,1-4,1c-4.4.45-5.79-2-8-1-1.75.81-1.13,2.49-4,5a14.29,14.29,0,0,1-3,2c-2.73,1.42-3.54.86-6,2-3.12,1.44-4.23,3.46-5,3-.59-.36-.45-1.88,0-3,1.06-2.62,4.2-3.31,4-4s-3.61,0-4-1c-.27-.7,1.19-1.71,1-2-.3-.47-4.3,1.63-5,2-10.71,5.57-20.63,5.11-25,5-2.17-.06-2.47-.25-2.58-.49-1.31-2.78,20.92-16.17,47.58-32.51,0,0,13.27-9.07,12.8-9.73-.1-.13-5.49,4.06-12.8,5.73a18.8,18.8,0,0,1-7,0c-3.19-.6-3.81-1.61-4-2-.64-1.35.52-2.58,0-3-1.67-1.35-6.93,5.88-15,6-2.29,0-5.6-.5-6-2-.34-1.28,1.5-2.87,3-4,11.84-8.9,35.94-14.34,51-29,.49-.47.86-.86,1-1a2.31,2.31,0,0,0-1-1c-2.76-1.33-6.65,5.08-10,4-1.74-.56-3-3.07-3-5,0-1.4.73-1.93.39-2.54-.51-.87-2.52-.71-8.39.54-3.32.71-6.69,1.21-10,2-2.48.59-4.56,1.15-6,0-.56-.45-1.2-1.31-1-2,.32-1.09,2.36-.58,4-2,1.38-1.2,1-2.45,2-4,1.53-2.3,4.57-2.73,6-3,13.26-2.47,32.78-17.06,36.39-22.06.27-.38,1-1.43.68-2-.55-.86-3.72-.07-6.07,1-3.4,1.57-4.18,3.33-6,3-1.32-.24-1.14-1.22-3-2-2.45-1-4.25,0-5-1s.55-2.42,0-3c-.77-.82-3.63,1.85-8,3-2.92.77-7.7,1.18-9-1a3.37,3.37,0,0,1,0-3c1.22-2.56,5-2.11,10-4a25.86,25.86,0,0,0,7-4c5.37-2.07,7.79-4.82,9-7,1.09-2,.8-2.72,2-4,2.71-2.88,5.81-.71,11-3l.41-.2a22.27,22.27,0,0,0,6.59-4.8,6.27,6.27,0,0,0,2-3c.15-.52.46-1.62,0-2s-1.38.28-3,1a17.09,17.09,0,0,1-6.38,1.28,13.8,13.8,0,0,1-2.62-.28,2.8,2.8,0,0,1-1-2c.05-1.13,1.14-1.59,1-2-.27-.81-4.84-.47-11,1-4.88,1.17-6.63,2.07-8,1s-1.38-3.56-1-5a7.26,7.26,0,0,1,6-5,3.65,3.65,0,0,0,1,0,5,5,0,0,0,3-2c1-1.23,1.27-.79,6-4,4-2.74,3.91-3.09,8-6,5.7-4,9.39-5.8,9-7-.21-.66-1.58-.92-2-1-1.73-.33-2.55.52-3,.13-.79-.69,3-8.13,3-8.13-2.07,1.1-4.58,2-6,1s-.62-3.12-2-4c-2-1.32-5.58,2.14-7,1-1-.82-.2-3.41,0-4,2.31-6.86,9.5-7,16-14,7-7.55,6.84-16.2,13-20,.65-.4,3.28-1.92,3-3-.16-.62-1.22-.88-2-1-3.51,3.88-7.37,5.21-9,4-1.29-1-1.25-3.59-1-5a9.13,9.13,0,0,1,2-4,25.37,25.37,0,0,1,5-5c7.25-5.11,17.27-29.22,18-31a186,186,0,0,0,8-24,49.34,49.34,0,0,0,4,20c2.35,5.32,3.64,5.42,9,16,2.58,5.08,3.37,7.21,6,11,1.23,1.77,1.34,1.7,6,8a27.28,27.28,0,0,1,5,10c.5,2,.36,2.67,0,3-1.75,1.6-8.84-4.29-10-3-.48.53.21,2.13,1,4a17.77,17.77,0,0,0,1,2,106.33,106.33,0,0,0,13,17c6.39,6.59,12,12.21,17,17,1.42,1.79,1.47,2.41,1.28,2.66-.67.89-5-2.29-7.28-.66-.9.63-.82,1.51-2,2-.68.28-1.13.17-3,0-3.26-.3-3.82-.31-4,0s-.1.75,1,2a4,4,0,0,1,1,4c-.25.7-1,1.85-2,2-.53.08-.87-.16-1,0-.38.46,2,3,2,3,6,6.44,9.07,9.66,13,12,7.1,4.23,13.31,4.91,16,9,.44.67,1.57,2.38,1,4a3.8,3.8,0,0,1-2,2c-3.35,1.58-5.41-2.32-11-2-2.15.12-3.68.81-6,0-.82-.29-1.59-.71-1.92-.4-.67.63,1.68,3.16.92,4.4s-3.91.65-6,0c-5.08-1.59-7.92-5.27-8.39-4.86-.26.23.55,1.55,1.39,2.86,3.72,5.77,5.57,8.65,7.95,9.73a15.17,15.17,0,0,0,6.05,1.27,9.41,9.41,0,0,1,3,0,6.51,6.51,0,0,1,4,3c.56,1.1.25,1.56,1,3a10,10,0,0,0,1.49,2c2.08,2.17,6.22,2.73,9.51,4,2.43.91,1.44,1.08,9,6,5.26,3.42,7.22,4.3,7,5-.31,1-5,.95-9,0-4.22-1-7.76-3.05-8.7-1.9a2,2,0,0,0-.3.9c-.33,1.56.39,2.23,0,3s-1.33.88-2,1c-1.53.28-2-.44-3,0s-.91.81-1.68,1.3c-1.86,1.17-4.64,0-5.32-.3-2.9-1.24-3.49-3.26-5-3a2.79,2.79,0,0,0-2,2c-1,4.56,15.9,13.18,26,17,4.19,1.58,7.82,4.41,12,6,0,0,5.53,2.11,5.28,4-.09.64-.81,1.49-.54,2.5a1,1,0,0,0,.26.44c1,1.06,8,2.06,4,4.06s-16-2-21-4,0,1,0,1a2.63,2.63,0,0,1-1,1c-.83.44-1.64.21-3,0s-3.44-.41-3.52-.14,3.85.9,4.52,3.14a2.76,2.76,0,0,1-1,3c-1.16.66-2.71-.45-7-3s-6.73-4-7-3.68,3,3.78,5,5.68c11.7,10.95,25.18,14.35,47,26,5.62,3,12.43,6.67,12,7.85-.77,2.13-20-3.07-29-5.85-13-4,7,3,0,2s-3,3-6,2-4,3-14-5,9,14,12,14c0,0,10,9-1,6s-28-6-21,1,1,14-10,11-16-10-17,0-1,16-1,16Z"/></g><g id="stars"><circle class="cls-2" cx="92" cy="20" r="0.5"/></g></svg>