<svg xmlns="http://www.w3.org/2000/svg" viewBox="0 0 390 275"><defs><style>.cls-1{fill:#3a5268;}</style></defs><g id="wolf"><path class="cls-1" d="M14,259c39.17,17.07,92.09,15.36,121,13,12.95-1.67,33.14-3.9,58-5,32.08-1.42,49.11,0,82,0,18.74,0,46.21-.54,80-3,20.23-6.79,34-16.84,33-25-.71-5.94-9.16-10.33-22-17a133.9,133.9,0,0,0-21.85-9,12.53,12.53,0,0,0,0-5c-1.14-5.34-5.65-8.15-7-9-7.35-4.58-15.82-1.46-17-1a55.51,55.51,0,0,1-10,5c-6.28,2.38-12.94,4.9-20,3-6.68-1.8-10.6-6.72-14-11-5.73-7.19-5.3-11.23-10-19s-10.24-12-15-16c-9.45-7.91-25.14-22.81-53-52-1-11-14-25-14-25,1-4-7-19-7-19a8.13,8.13,0,0,0,4.59-2.74A8.58,8.58,0,0,0,183.15,54a28.7,28.7,0,0,1-5-2,29.2,29.2,0,0,1-7-5c-3.91-13.43-10-19.23-15-22-4.36-2.39-5.68-1.28-10-4-10.67-6.72-10.83-18.71-16-19-1.78-.1-4.45,1.17-8,8,0,2.26,0,5,0,8,0,5.91-.11,7.66-1,8s-2.54-1.13-6-4c-1.83-1.52-2.25-2-3-2-1.91-.05-3.63,2.77-5,6a24.6,24.6,0,0,0,3,7c1.79,2.85,3.35,4,5,6a24.86,24.86,0,0,1,5,11c-2,55,2,52,2,52-.5,27,4.75,43,10.12,52.25,3,5.15,7.23,8.73,10.88,11.75,0,3.61,0,9.18,0,16,.06,13,.21,16,0,21a137.88,137.88,0,0,1-3,23,122.88,122.88,0,0,1-50,10C50,237.57,2.71,241.08,2,250,1.82,252.32,4.77,255,14,259Zm145.15-35a122.72,122.72,0,0,1,3-19,121.38,121.38,0,0,1,5-16c2.13,2.7,5.2,6.51,9,11,3.19,3.78,4.91,5.81,7,8a92.49,92.49,0,0,0,14,12,92.74,92.74,0,0,1-38,4Z"/></g></svg>