<?xml version="1.0" encoding="utf-8"?>
<!-- Generator: Adobe Illustrator 25.0.1, SVG Export Plug-In . SVG Version: 6.00 Build 0)  -->
<svg version="1.1" xmlns="http://www.w3.org/2000/svg" xmlns:xlink="http://www.w3.org/1999/xlink" x="0px" y="0px"
	 viewBox="0 0 390.7 142.3" style="enable-background:new 0 0 390.7 142.3;" xml:space="preserve">
<style type="text/css">
	.st0{display:none;}
	.st1{display:inline;fill:#161E2D;stroke:#000000;stroke-miterlimit:10;}
	.st2{fill:#FFF3E6;}
	.st3{fill:#FFFFFF;}
	.st4{fill:#DCE7F1;}
</style>
<g id="bg" class="st0">
</g>
<g id="cloud_1">
</g>
<g id="cloud_4">
</g>
<g id="Layer_1">
</g>
<g id="cloud_2">
</g>
<g id="cloud_3">
	<g id="XMLID_17_">
		<path id="XMLID_21_" class="st4" d="M78.8,121.5c0,0,0.2,0,0.2,0v0.5h179v-0.5c0,0-0.2,0-0.2,0c2.6,0,4.5,3.4,4.5,7.5
			s-1.8,7.5-4.4,7.5c-0.1,0,0.1,0,0.1,0v0.5H79v-0.5c0,0-0.2,0-0.2,0c-2.6,0-4.7-3.4-4.7-7.5S76.2,121.5,78.8,121.5z"/>
		<circle id="XMLID_20_" class="st4" cx="282.2" cy="129" r="7.5"/>
		<path id="XMLID_19_" class="st4" d="M11.5,73.5c0.1,0,0.1,0,0.2,0v0h59.2c4.1,0,7.7-3.2,7.8-7.3c0.1-4.2-3.3-7.7-7.5-7.7H37.7v0
			c-0.1,0-0.1,0-0.2,0c-4.1,0-7.5-3.4-7.5-7.5s3.4-7.5,7.5-7.5c0.1,0,0.1,0,0.2,0v0l179.2,0c4.1,0,7.7-3.2,7.8-7.3
			c0.1-4.2-3.3-7.7-7.5-7.7H91.7v0c-0.1,0-0.1,0-0.2,0c-4.1,0-7.5-3.4-7.5-7.5s3.4-7.5,7.5-7.5c0.1,0,0.1,0,0.2,0v0h288v0
			c0,0,0.1,0,0.5,0c3.1,0.2,5.9,2.3,6.7,5.4c1.3,5.1-2.2,9.6-7,9.6c-0.1,0-0.1,0-0.1,0v0l-78.2,0c-4.1,0-7.7,3.2-7.8,7.3
			c-0.1,4.2,3.3,7.7,7.5,7.7h24.5v0c0,0,0.1,0,0.5,0c3.1,0.2,5.9,2.3,6.7,5.4c1.3,5.1-2.2,9.6-7,9.6c-0.1,0-0.1,0-0.1,0v0H213.5
			c-4.1,0-7.7,3.2-7.8,7.3c-0.1,4.2,3.3,7.7,7.5,7.7h86.5v0c0,0,0.1,0,0.5,0c3.1,0.2,5.9,2.3,6.7,5.4c1.3,5.1-2.2,9.6-7,9.6
			c-0.1,0-0.1,0-0.1,0v0h-79c-3.3,0-6,2.7-6,6v0c0,3.3,2.7,6,6,6h27v0c0,0,0,0,0,0c2.5,0,4.5,3.4,4.5,7.5s-1.9,7.5-4.4,7.5
			c-0.1,0-0.1,0-0.1,0v0h-175v0c0,0-0.1,0-0.1,0c-2.5,0-4.6-3.4-4.6-7.5s2-7.5,4.6-7.5c0,0,0.1,0,0.1,0v0h64c3.3,0,6-2.7,6-6v0
			c0-3.3-2.7-6-6-6h-125v0c-0.1,0-0.1,0-0.2,0C7.4,88.5,4,85.1,4,81S7.4,73.5,11.5,73.5z"/>
		<path id="XMLID_18_" class="st4" d="M369.7,136.5h-59c-4.1,0-7.5-3.4-7.5-7.5l0,0c0-4.1,3.4-7.5,7.5-7.5h59c4.1,0,7.5,3.4,7.5,7.5
			l0,0C377.2,133.1,373.9,136.5,369.7,136.5z"/>
	</g>
</g>
</svg>
