<?xml version="1.0" encoding="utf-8"?>
<!-- Generator: Adobe Illustrator 23.0.1, SVG Export Plug-In . SVG Version: 6.00 Build 0)  -->
<svg version="1.1" xmlns="http://www.w3.org/2000/svg" xmlns:xlink="http://www.w3.org/1999/xlink" x="0px" y="0px"
	 viewBox="0 0 97.8 92" style="enable-background:new 0 0 97.8 92;" xml:space="preserve">
<style type="text/css">
	.st0{display:none;}
	.st1{fill:#DBD3CC;}
	.st2{fill:#F4EAE1;}
	.st3{fill:#ECE0D1;}
	.st4{fill:#FCF0E3;}
	.st5{fill:#967259;}
	.st6{fill:#DBC1AC;}
</style>
<g id="Layer_1" class="st0">
	
		<image style="display:inline;overflow:visible;opacity:0.5;" width="471" height="693" xlink:href="../Untitled-3.png"  transform="matrix(0.24 0 0 0.24 3.1111 -57)">
	</image>
</g>
<g id="Layer_2">
	<ellipse class="st1" cx="49.1" cy="77.7" rx="46.4" ry="12.4"/>
	<ellipse class="st2" cx="49.1" cy="75.8" rx="46.9" ry="12.5"/>
	<path class="st1" d="M87.5,73.4l-8.7,1.2c-0.8,0.1-1.5-0.4-1.6-1.2v0c-0.1-0.8,0.4-1.5,1.2-1.6l8.7-1.2c0.8-0.1,1.5,0.4,1.6,1.2
		l0,0C88.8,72.6,88.2,73.3,87.5,73.4z"/>
	<ellipse class="st1" cx="49.1" cy="73.7" rx="30.7" ry="6.1"/>
	<path class="st3" d="M74.8,15.1c0,0,2.6-1,3.9-1.3c1.3-0.3,1.6-0.3,2-0.3c1.5,0.2,6.6,0.5,7.9,5.1c1.3,4.7,1.2,17.9,0,22
		s-7,12.8-11.9,12.3l-1.9,0L63.9,18.3L74.8,15.1z"/>
	<path class="st4" d="M75.2,19.8c0,0,2-0.8,3-1c1-0.2,1.2-0.3,1.6-0.2c1.1,0.2,5.1,0.4,6.1,4s0.9,13.9,0,17.1
		c-0.9,3.2-5.4,10-9.2,9.5l-1.4,0l-8.5-26.9L75.2,19.8z"/>
	<rect x="20.8" y="3.9" class="st3" width="56.7" height="69.4"/>
	<ellipse class="st5" cx="49.1" cy="4.3" rx="28.3" ry="4.3"/>
	<ellipse class="st6" cx="49.1" cy="4.2" rx="27.5" ry="3.5"/>
	<ellipse class="st3" cx="49.1" cy="73.4" rx="28.3" ry="4.3"/>
</g>
</svg>
