<?xml version="1.0" encoding="utf-8"?>
<!-- Generator: Adobe Illustrator 23.0.1, SVG Export Plug-In . SVG Version: 6.00 Build 0)  -->
<svg version="1.1" xmlns="http://www.w3.org/2000/svg" xmlns:xlink="http://www.w3.org/1999/xlink" x="0px" y="0px"
	 viewBox="0 0 111.56 222.14" style="enable-background:new 0 0 111.56 222.14;" xml:space="preserve">
<style type="text/css">
	.st0{fill:#B3B6BB;}
	.st1{opacity:0.9;}
	.st2{fill:url(#SVGID_1_);}
	.st3{fill:url(#SVGID_2_);}
	.st4{fill:url(#SVGID_3_);}
	.st5{fill:url(#SVGID_4_);}
	.st6{fill:url(#SVGID_5_);}
	.st7{fill:url(#SVGID_6_);}
	.st8{fill:url(#SVGID_7_);}
	.st9{fill:url(#SVGID_8_);}
	.st10{fill:url(#SVGID_9_);}
	.st11{fill:url(#SVGID_10_);}
	.st12{fill:url(#SVGID_11_);}
	.st13{fill:url(#SVGID_12_);}
	.st14{fill:url(#SVGID_13_);}
	.st15{fill:url(#SVGID_14_);}
	.st16{fill:url(#SVGID_15_);}
	.st17{fill:url(#SVGID_16_);}
	.st18{fill:url(#SVGID_17_);}
	.st19{fill:url(#SVGID_18_);}
	.st20{fill:url(#SVGID_19_);}
	.st21{fill:url(#SVGID_20_);}
	.st22{fill:url(#SVGID_21_);}
	.st23{fill:url(#SVGID_22_);}
	.st24{fill:url(#SVGID_23_);}
	.st25{fill:url(#SVGID_24_);}
	.st26{fill:url(#SVGID_25_);}
	.st27{fill:url(#SVGID_26_);}
	.st28{font-family:'MyriadPro-Regular';}
	.st29{font-size:4.4201px;}
	.st30{font-size:2.224px;}
	.st31{font-size:8.2714px;}
	.st32{fill:#88EAA3;}
	.st33{fill:#C68458;stroke:#C68458;stroke-width:1.7166;}
	.st34{fill:#A56A42;stroke:#A56A42;stroke-width:1.7166;}
	.st35{fill:#75341B;stroke:#75341B;stroke-width:1.7166;}
	.st36{fill:#8253C2;stroke:#8253C2;stroke-width:1.7166;}
	.st37{fill:#623F91;stroke:#623F91;stroke-width:1.7166;}
	.st38{fill:#6DC180;}
	.st39{fill:#5CA15D;}
	.st40{fill:#F2F2F4;}
	.st41{fill:#DFDFE1;}
	.st42{font-size:5.9056px;}
	.st43{fill:none;}
	.st44{font-size:7px;}
</style>
<g id="Layer_1">
	<g>
		<g>
			
				<linearGradient id="SVGID_1_" gradientUnits="userSpaceOnUse" x1="-1589.2268" y1="76.5624" x2="-1589.2268" y2="37.6388" gradientTransform="matrix(-1 0 0 1 -1586.4114 0)">
				<stop  offset="0" style="stop-color:#808080"/>
				<stop  offset="0.0147" style="stop-color:#727272"/>
				<stop  offset="0.0567" style="stop-color:#4F4F4F"/>
				<stop  offset="0.1013" style="stop-color:#323232"/>
				<stop  offset="0.1488" style="stop-color:#1C1C1C"/>
				<stop  offset="0.2004" style="stop-color:#0C0C0C"/>
				<stop  offset="0.2592" style="stop-color:#030303"/>
				<stop  offset="0.3406" style="stop-color:#000000"/>
				<stop  offset="0.6981" style="stop-color:#000000"/>
				<stop  offset="0.7455" style="stop-color:#050505"/>
				<stop  offset="0.8005" style="stop-color:#131313"/>
				<stop  offset="0.8595" style="stop-color:#2A2A2A"/>
				<stop  offset="0.9211" style="stop-color:#4B4B4B"/>
				<stop  offset="0.9841" style="stop-color:#747474"/>
				<stop  offset="1" style="stop-color:#808080"/>
			</linearGradient>
			<path class="st2" d="M1.92,76.56h1.79c0.54,0,0.98-0.44,0.98-0.98V38.62c0-0.54-0.44-0.98-0.98-0.98H1.92
				c-0.54,0-0.98,0.44-0.98,0.98v36.96C0.94,76.12,1.38,76.56,1.92,76.56z"/>
			
				<linearGradient id="SVGID_2_" gradientUnits="userSpaceOnUse" x1="-1589.2268" y1="97.0058" x2="-1589.2268" y2="81.0437" gradientTransform="matrix(-1 0 0 1 -1586.4114 0)">
				<stop  offset="0" style="stop-color:#808080"/>
				<stop  offset="0.0147" style="stop-color:#727272"/>
				<stop  offset="0.0567" style="stop-color:#4F4F4F"/>
				<stop  offset="0.1013" style="stop-color:#323232"/>
				<stop  offset="0.1488" style="stop-color:#1C1C1C"/>
				<stop  offset="0.2004" style="stop-color:#0C0C0C"/>
				<stop  offset="0.2592" style="stop-color:#030303"/>
				<stop  offset="0.3406" style="stop-color:#000000"/>
				<stop  offset="0.6981" style="stop-color:#000000"/>
				<stop  offset="0.7455" style="stop-color:#050505"/>
				<stop  offset="0.8005" style="stop-color:#131313"/>
				<stop  offset="0.8595" style="stop-color:#2A2A2A"/>
				<stop  offset="0.9211" style="stop-color:#4B4B4B"/>
				<stop  offset="0.9841" style="stop-color:#747474"/>
				<stop  offset="1" style="stop-color:#808080"/>
			</linearGradient>
			<path class="st3" d="M1.92,97.01h1.79c0.54,0,0.98-0.44,0.98-0.98v-14c0-0.54-0.44-0.98-0.98-0.98H1.92
				c-0.54,0-0.98,0.44-0.98,0.98v14C0.94,96.57,1.38,97.01,1.92,97.01z"/>
			
				<linearGradient id="SVGID_3_" gradientUnits="userSpaceOnUse" x1="-1700.1288" y1="110.733" x2="-1586.2872" y2="110.733" gradientTransform="matrix(-1 0 0 1 -1586.4114 0)">
				<stop  offset="0" style="stop-color:#333333"/>
				<stop  offset="1.128088e-03" style="stop-color:#323232"/>
				<stop  offset="0.031" style="stop-color:#1C1C1C"/>
				<stop  offset="0.0635" style="stop-color:#0C0C0C"/>
				<stop  offset="0.1007" style="stop-color:#030303"/>
				<stop  offset="0.1522" style="stop-color:#000000"/>
				<stop  offset="0.872" style="stop-color:#000000"/>
				<stop  offset="0.9058" style="stop-color:#050505"/>
				<stop  offset="0.945" style="stop-color:#131313"/>
				<stop  offset="0.9868" style="stop-color:#2A2A2A"/>
				<stop  offset="1" style="stop-color:#333333"/>
			</linearGradient>
			<path class="st4" d="M17.22,221.21h78.62c8.42,0,15.24-6.82,15.24-15.24V15.49c0-8.41-6.82-15.24-15.24-15.24H17.22
				C8.8,0.25,1.98,7.07,1.98,15.49v190.49C1.98,214.39,8.8,221.21,17.22,221.21z"/>
			
				<linearGradient id="SVGID_4_" gradientUnits="userSpaceOnUse" x1="-1642.9388" y1="7.2936" x2="-1642.9388" y2="-0.5335" gradientTransform="matrix(-1 0 0 1 -1586.4114 0)">
				<stop  offset="0" style="stop-color:#000000"/>
				<stop  offset="0.157" style="stop-color:#050505"/>
				<stop  offset="0.3394" style="stop-color:#131313"/>
				<stop  offset="0.5345" style="stop-color:#2A2A2A"/>
				<stop  offset="0.7385" style="stop-color:#4B4B4B"/>
				<stop  offset="0.9475" style="stop-color:#747474"/>
				<stop  offset="1" style="stop-color:#808080"/>
			</linearGradient>
			<path class="st5" d="M18.5,1.4h76.05c8.41,0,15.24,6.82,15.24,15.24v2.18c0-8.41-6.82-15.24-15.24-15.24H18.5
				c-8.41,0-15.24,6.82-15.24,15.24v-2.18C3.26,8.23,10.09,1.4,18.5,1.4z"/>
			
				<linearGradient id="SVGID_5_" gradientUnits="userSpaceOnUse" x1="-2862.1018" y1="-2874.8674" x2="-2862.1018" y2="-2882.6943" gradientTransform="matrix(1 0 0 -1 2918.6292 -2660.759)">
				<stop  offset="0" style="stop-color:#000000"/>
				<stop  offset="0.157" style="stop-color:#050505"/>
				<stop  offset="0.3394" style="stop-color:#131313"/>
				<stop  offset="0.5345" style="stop-color:#2A2A2A"/>
				<stop  offset="0.7385" style="stop-color:#4B4B4B"/>
				<stop  offset="0.9475" style="stop-color:#747474"/>
				<stop  offset="1" style="stop-color:#808080"/>
			</linearGradient>
			<path class="st6" d="M94.55,220H18.5c-8.41,0-15.24-6.82-15.24-15.24v-2.18c0,8.41,6.82,15.24,15.24,15.24h76.05
				c8.41,0,15.24-6.82,15.24-15.24v2.18C109.79,213.18,102.97,220,94.55,220z"/>
			<linearGradient id="SVGID_6_" gradientUnits="userSpaceOnUse" x1="2.4637" y1="151.8288" x2="259.8501" y2="-43.762">
				<stop  offset="0" style="stop-color:#D8D8D9"/>
				<stop  offset="0.8871" style="stop-color:#FFFFFF"/>
			</linearGradient>
			<path class="st7" d="M108.28,16.77V204.7c0,6.38-5.19,11.52-11.57,11.52H16.34c-6.38,0-11.57-5.14-11.57-11.52V16.77
				c0-5.73,4.19-10.42,9.62-11.32c0.65-0.15,1.3-0.2,1.94-0.2h14.11c1.8,0,3.24,1.45,3.24,3.24s1.45,3.29,3.24,3.29h39.19
				c1.79,0,3.24-1.5,3.24-3.29s1.45-3.24,3.24-3.24h14.11C103.09,5.25,108.28,10.39,108.28,16.77z"/>
		</g>
	</g>
	<linearGradient id="SVGID_7_" gradientUnits="userSpaceOnUse" x1="56.5341" y1="-0.1063" x2="56.5341" y2="11.9345">
		<stop  offset="0" style="stop-color:#000000"/>
		<stop  offset="0.138" style="stop-color:#050505"/>
		<stop  offset="0.2983" style="stop-color:#131313"/>
		<stop  offset="0.4697" style="stop-color:#2A2A2A"/>
		<stop  offset="0.649" style="stop-color:#4B4B4B"/>
		<stop  offset="0.8324" style="stop-color:#747474"/>
		<stop  offset="1" style="stop-color:#A1A1A1"/>
	</linearGradient>
	<path class="st8" d="M68.94,8.54H44.12c-0.38,0-0.69-0.31-0.69-0.69l0,0c0-0.38,0.31-0.69,0.69-0.69h24.82
		c0.38,0,0.69,0.31,0.69,0.69l0,0C69.63,8.24,69.33,8.54,68.94,8.54z"/>
	<linearGradient id="SVGID_8_" gradientUnits="userSpaceOnUse" x1="38.9504" y1="3.8116" x2="38.9504" y2="10.4236">
		<stop  offset="0" style="stop-color:#000000"/>
		<stop  offset="0.138" style="stop-color:#050505"/>
		<stop  offset="0.2983" style="stop-color:#131313"/>
		<stop  offset="0.4697" style="stop-color:#2A2A2A"/>
		<stop  offset="0.649" style="stop-color:#4B4B4B"/>
		<stop  offset="0.8324" style="stop-color:#747474"/>
		<stop  offset="1" style="stop-color:#A1A1A1"/>
	</linearGradient>
	<path class="st9" d="M38.95,9.08c0.69,0,1.26-0.56,1.26-1.26s-0.56-1.26-1.26-1.26c-0.69,0-1.26,0.56-1.26,1.26
		S38.26,9.08,38.95,9.08L38.95,9.08z"/>
	<linearGradient id="SVGID_9_" gradientUnits="userSpaceOnUse" x1="73.911" y1="3.8116" x2="73.911" y2="10.4236">
		<stop  offset="0" style="stop-color:#000000"/>
		<stop  offset="0.138" style="stop-color:#050505"/>
		<stop  offset="0.2983" style="stop-color:#131313"/>
		<stop  offset="0.4697" style="stop-color:#2A2A2A"/>
		<stop  offset="0.649" style="stop-color:#4B4B4B"/>
		<stop  offset="0.8324" style="stop-color:#747474"/>
		<stop  offset="1" style="stop-color:#A1A1A1"/>
	</linearGradient>
	<path class="st10" d="M73.91,9.08c0.69,0,1.26-0.56,1.26-1.26s-0.56-1.26-1.26-1.26c-0.69,0-1.26,0.56-1.26,1.26
		S73.22,9.08,73.91,9.08L73.91,9.08z"/>
</g>
<g id="phone">
	<g>
		<g>
			<linearGradient id="SVGID_10_" gradientUnits="userSpaceOnUse" x1="18.4204" y1="99.6646" x2="95.5949" y2="99.6646">
				<stop  offset="0" style="stop-color:#24BCFF"/>
				<stop  offset="1" style="stop-color:#007DA8"/>
			</linearGradient>
			<path class="st11" d="M89.97,112.42H24.05c-3.11,0-5.63-2.52-5.63-5.63V92.54c0-3.11,2.52-5.63,5.63-5.63h65.92
				c3.11,0,5.63,2.52,5.63,5.63v14.26C95.59,109.9,93.07,112.42,89.97,112.42z"/>
			<linearGradient id="SVGID_11_" gradientUnits="userSpaceOnUse" x1="18.4204" y1="133.5063" x2="95.5949" y2="133.5063">
				<stop  offset="0.2063" style="stop-color:#3DF27D"/>
				<stop  offset="1" style="stop-color:#3ACC6A"/>
			</linearGradient>
			<path class="st12" d="M89.97,146.26H24.05c-3.11,0-5.63-2.52-5.63-5.63v-14.26c0-3.11,2.52-5.63,5.63-5.63h65.92
				c3.11,0,5.63,2.52,5.63,5.63v14.26C95.59,143.74,93.07,146.26,89.97,146.26z"/>
			<text transform="matrix(1 0 0 1 24.3518 94.194)" class="st28 st29">Lorem ipsum</text>
			<text transform="matrix(1 0 0 1 24.3518 128.0829)" class="st28 st29">Lorem ipsum</text>
			<text transform="matrix(1 0 0 1 24.3518 108.7425)" class="st28 st30">Lorem ipsum</text>
			<text transform="matrix(1 0 0 1 24.3518 142.6314)" class="st28 st30">Lorem ipsum</text>
		</g>
		<g>
			<text transform="matrix(1 0 0 1 42.0913 76.1361)" class="st28 st31">Hi, Susan</text>
			<circle class="st32" cx="57.42" cy="50.07" r="14.37"/>
			<g>
				<path class="st33" d="M56.67,44.81c0.22-0.12,0.46-0.23,0.72-0.19c0.37,0.02,0.61,0.34,0.95,0.45c0.33,0.13,0.7,0.09,1.03-0.02
					c0.66-0.15,1.41-0.17,2.02,0.19c0.24,0.13,0.5,0.35,0.49,0.65c-0.02,0.36-0.16,0.69-0.23,1.04c-0.04,0.23,0.09,0.44,0.24,0.59
					c0.1-0.11,0.18-0.23,0.28-0.34c0.12-0.01,0.22,0.07,0.31,0.14c0.21,0.2,0.29,0.49,0.28,0.77c0,0.38-0.17,0.73-0.36,1.05
					c-0.21,0.33-0.5,0.65-0.9,0.73c-0.1,0.29-0.16,0.59-0.26,0.88c-0.14,0.4-0.37,0.76-0.68,1.04c-0.46,0.42-1.01,0.74-1.59,0.98
					c-0.35,0.16-0.73,0.28-1.1,0.39c-0.21,0.06-0.43,0.13-0.64,0.07c-0.46-0.11-0.9-0.26-1.34-0.43c-0.43-0.2-0.86-0.41-1.24-0.69
					c-0.42-0.3-0.79-0.69-0.99-1.17c-0.15-0.33-0.19-0.7-0.33-1.03c-0.11-0.09-0.27-0.11-0.38-0.19c-0.29-0.2-0.49-0.5-0.65-0.8
					c-0.2-0.35-0.27-0.77-0.19-1.16c0.06-0.25,0.23-0.47,0.47-0.57c0.09,0.11,0.17,0.22,0.27,0.32c0.24-0.07,0.45-0.24,0.58-0.45
					c0.13-0.2,0.08-0.44,0.05-0.65c-0.07-0.45,0.13-0.89,0.4-1.23c0.15-0.2,0.33-0.42,0.6-0.45c0.24-0.01,0.46,0.12,0.69,0.17
					C55.68,44.97,56.21,45.04,56.67,44.81z"/>
				<path class="st34" d="M57.88,53.15c0.37-0.11,0.74-0.23,1.1-0.39c-0.01,0.23,0,0.46,0,0.69c-0.01-0.02-0.04-0.06-0.05-0.07
					c-0.98,0.33-2.05,0.32-3.03-0.01c-0.01,0.1-0.02,0.2-0.03,0.31c0.01-0.3-0.02-0.6,0.03-0.9c0.44,0.17,0.88,0.32,1.34,0.43
					C57.45,53.27,57.67,53.21,57.88,53.15z"/>
				<path class="st33" d="M55.89,53.37c0.98,0.33,2.05,0.33,3.03,0.01c0.01,0.02,0.04,0.05,0.05,0.07c0,0.39,0.02,0.78,0.07,1.16
					c0.03,0.25,0.14,0.52,0.39,0.62c0.31,0.13,0.63,0.23,0.94,0.34c0.24,0.1,0.48,0.18,0.73,0.27c-0.05,0.49-0.17,0.97-0.25,1.46
					c-0.03,0.15-0.03,0.32-0.13,0.44c-0.54,0.63-1.29,1.08-2.11,1.24c-0.39,0.09-0.78,0.07-1.18,0.06
					c-0.35,0.01-0.71,0.02-1.06-0.05c-0.79-0.15-1.52-0.61-1.99-1.26c-0.14-0.27-0.2-0.56-0.3-0.84c-0.11-0.35-0.24-0.7-0.34-1.05
					c0.28-0.09,0.56-0.2,0.84-0.3c0.27-0.1,0.55-0.19,0.81-0.3c0.24-0.09,0.35-0.34,0.39-0.58c0.05-0.32,0.06-0.65,0.08-0.98
					C55.87,53.58,55.88,53.48,55.89,53.37z"/>
				<path class="st35" d="M65.9,47.16c0.04-0.35-0.1-0.7-0.35-0.93c-0.11-0.08-0.06-0.23,0.02-0.31c0.42-0.4,0.23-1.11-0.14-1.47
					c-0.14-0.14-0.31-0.26-0.5-0.34c-0.1-0.04-0.13-0.03-0.13-0.14c0-0.07,0.04-0.14,0.06-0.21c0.03-0.14,0.03-0.3-0.02-0.43
					c-0.04-0.1-0.08-0.19-0.11-0.29c-0.01-0.03-0.03-0.08-0.03-0.1c0.01-0.26-0.01-0.54-0.15-0.77c-0.24-0.41-0.79-0.63-1.26-0.63
					c-0.04,0-0.08,0-0.12-0.01c-0.13-0.03-0.19-0.18-0.29-0.25c-0.16-0.12-0.13-0.35-0.24-0.5c-0.27-0.34-0.63-0.68-1.09-0.68
					c-0.08,0-0.16,0.01-0.24,0.01c-0.27,0-0.53-0.15-0.8-0.19c-0.25-0.03-0.33-0.3-0.52-0.43c-0.15-0.1-0.3-0.15-0.47-0.21
					c-0.03-0.01-0.07-0.03-0.1-0.03c-0.03-0.01-0.08-0.02-0.11-0.03c-0.17-0.05-0.35-0.03-0.52,0c-0.21,0.03-0.39,0.14-0.59,0.2
					c-0.28,0.09-0.64-0.08-0.92-0.12c-0.29-0.04-0.58-0.05-0.87,0c-0.12,0.02-0.23,0.06-0.34,0.1c-0.02,0.01-0.07,0.04-0.09,0.05
					c-0.22,0.05-0.44,0.07-0.66,0.05c-0.23-0.01-0.45-0.09-0.68-0.02c-0.36,0.07-0.64,0.34-0.98,0.47c-0.35,0.12-0.5,0.53-0.86,0.63
					c-0.28,0.07-0.58,0.15-0.79,0.36c-0.22,0.22-0.32,0.52-0.43,0.81c-0.27,0.21-0.61,0.31-0.88,0.53c-0.17,0.15-0.27,0.38-0.3,0.6
					c-0.01,0.12-0.01,0.24,0.02,0.35c0.01,0.03,0.06,0.12,0.05,0.15c0,0.01-0.09,0.11-0.09,0.11c-0.25,0-0.47,0.17-0.63,0.34
					c-0.14,0.14-0.22,0.33-0.27,0.53c-0.04,0.15-0.04,0.32,0.01,0.47c0.01,0.07,0.07,0.15,0.02,0.21c-0.22,0.31-0.41,0.65-0.46,1.04
					c-0.05,0.23-0.05,0.46,0,0.69c0.01,0.14,0.06,0.27,0.06,0.41c-0.11,0.22-0.25,0.44-0.29,0.7c-0.05,0.4,0.03,0.73,0.13,1.11
					c0.04,0.16,0.08,0.3,0.19,0.42c0.1,0.12,0.23,0.21,0.26,0.37c0,0.02-0.01,0.06-0.01,0.08c-0.01,0.21-0.04,0.42-0.03,0.63
					c0.01,0.21,0,0.43,0.11,0.62c0.1,0.17,0.23,0.33,0.34,0.5c0.12,0.2,0.31,0.34,0.51,0.45c0.13,0.08,0.17,0.06,0.14,0.22
					c-0.07,0.37,0.07,0.65,0.33,0.91c0.15,0.16,0.33,0.28,0.51,0.4c0.2,0.13,0.37,0.09,0.58,0c-0.04,0.02,0.13,0.36,0.15,0.39
					c0.07,0.11,0.15,0.21,0.26,0.3c0.21,0.18,0.48,0.3,0.75,0.35c0.18,0.03,0.34-0.02,0.51-0.06c0.1,0.49,0.54,0.88,1.03,0.97
					c0.27-0.1,0.55-0.19,0.81-0.3c0.24-0.09,0.35-0.34,0.39-0.58c0.05-0.32,0.06-0.65,0.08-0.98c0.01-0.3-0.02-0.6,0.03-0.9
					c-0.43-0.2-0.86-0.41-1.24-0.69c-0.42-0.3-0.79-0.69-0.99-1.17c-0.15-0.33-0.19-0.7-0.33-1.03c-0.11-0.09-0.27-0.11-0.38-0.19
					c-0.29-0.2-0.49-0.5-0.65-0.8c-0.2-0.35-0.27-0.77-0.19-1.16c0.06-0.25,0.23-0.47,0.47-0.57c0.09,0.11,0.17,0.22,0.27,0.32
					c0.24-0.07,0.45-0.24,0.58-0.45c0.13-0.2,0.08-0.44,0.05-0.65c-0.07-0.45,0.13-0.89,0.4-1.23c0.15-0.2,0.33-0.42,0.6-0.45
					c0.24-0.01,0.46,0.12,0.69,0.17c0.49,0.1,1.02,0.17,1.48-0.07c0.22-0.12,0.46-0.23,0.72-0.19c0.37,0.02,0.61,0.34,0.95,0.45
					c0.33,0.13,0.7,0.09,1.03-0.02c0.66-0.15,1.41-0.17,2.02,0.19c0.24,0.13,0.5,0.35,0.49,0.65c-0.02,0.36-0.16,0.69-0.23,1.04
					c-0.04,0.23,0.09,0.44,0.24,0.59c0.1-0.11,0.18-0.23,0.28-0.34c0.12-0.01,0.22,0.07,0.31,0.14c0.21,0.2,0.29,0.49,0.28,0.77
					c0,0.38-0.17,0.73-0.36,1.05c-0.21,0.33-0.5,0.65-0.9,0.73c-0.1,0.29-0.16,0.59-0.26,0.88c-0.14,0.4-0.37,0.76-0.68,1.04
					c-0.46,0.42-1.01,0.74-1.59,0.98c-0.01,0.23,0,0.46,0,0.69c0,0.39,0.02,0.78,0.07,1.16c0.03,0.25,0.14,0.52,0.39,0.62
					c0.31,0.13,0.63,0.23,0.94,0.34c0.41-0.04,0.82-0.28,1-0.66c0.05-0.1,0.08-0.3,0.19-0.35c0.06-0.02,0.12-0.02,0.18-0.03
					c0.23-0.02,0.48-0.17,0.64-0.33c0.17-0.21,0.3-0.48,0.31-0.75c0.39,0,0.77-0.17,1.03-0.47c0.22-0.26,0.42-0.56,0.52-0.89
					c0.04-0.11,0.06-0.25,0.16-0.33c0.39-0.31,0.63-0.77,0.72-1.26c0.04-0.24,0.05-0.48,0.02-0.73c-0.02-0.14-0.01-0.19,0.07-0.31
					c0.08-0.11,0.18-0.21,0.25-0.33c0.2-0.33,0.15-0.73-0.01-1.07C65.7,47.84,65.91,47.52,65.9,47.16z"/>
				<path class="st36" d="M53.04,55.96c0.22-0.07,0.44-0.13,0.66-0.21c0.01,0.02,0.04,0.07,0.05,0.09c0.1,0.35,0.22,0.7,0.34,1.05
					c0.1,0.28,0.16,0.58,0.3,0.84c0.47,0.65,1.2,1.12,1.99,1.26c0.35,0.07,0.7,0.06,1.06,0.05c0.39,0.01,0.79,0.02,1.18-0.06
					c0.82-0.16,1.57-0.6,2.11-1.24c0.09-0.13,0.1-0.29,0.13-0.44c0.08-0.49,0.19-0.97,0.25-1.46c0.02-0.02,0.06-0.06,0.08-0.08
					c0.19,0.06,0.39,0.12,0.58,0.18c0.11,0.4,0.12,0.82,0.18,1.23c0.08,0.61,0.15,1.22,0.23,1.84c0.03,0.21,0.06,0.42,0.06,0.63
					c-3.21,0-6.43,0.01-9.64,0C52.72,58.42,52.91,57.19,53.04,55.96z"/>
				<path class="st37" d="M51.74,56.39c0.42-0.16,0.86-0.29,1.3-0.42c-0.12,1.23-0.32,2.46-0.44,3.69c3.21,0.01,6.43,0,9.64,0
					c0-0.21-0.04-0.42-0.06-0.63c-0.07-0.61-0.15-1.22-0.23-1.84c-0.06-0.41-0.07-0.83-0.18-1.23c0.48,0.16,0.98,0.28,1.45,0.48
					c0.47,0.22,0.88,0.56,1.18,0.98c0.49,0.66,0.7,1.48,0.74,2.29H49.73c-0.05-0.11-0.02-0.24,0-0.35c0.07-0.53,0.21-1.05,0.46-1.52
					C50.54,57.2,51.07,56.65,51.74,56.39z"/>
			</g>
		</g>
		<g>
			<path class="st32" d="M75.13,148.53H39.72c-6.01,0-10.88-4.87-10.88-10.88v-33.81c0-6.01,4.87-10.88,10.88-10.88h35.42
				c6.01,0,10.88,4.87,10.88,10.88v33.81C86.02,143.66,81.14,148.53,75.13,148.53z"/>
			<g>
				<circle class="st38" cx="58.39" cy="119.23" r="14.8"/>
				<path class="st39" d="M58.39,104.43v29.59c8.17,0,14.8-6.62,14.8-14.8S66.56,104.43,58.39,104.43z"/>
				<polygon class="st40" points="56.28,125.7 49.87,119.29 52.11,117.05 56.28,121.21 64.14,113.35 66.38,115.59 				"/>
				<polygon class="st41" points="58.39,123.58 66.38,115.59 64.14,113.35 58.39,119.1 				"/>
			</g>
			<text transform="matrix(1 0 0 1 45.8051 142.9508)" class="st28 st42">Logged In</text>
		</g>
		<rect x="49.7" y="27.21" class="st43" width="17.32" height="5.43"/>
		<text transform="matrix(1 0 0 1 49.6988 32.1782)" class="st28 st44">00:07</text>
	</g>
</g>
</svg>
